<?xml version="1.0" encoding="UTF-8"?>
<svg id="Layer_1" data-name="Layer 1" xmlns="http://www.w3.org/2000/svg" viewBox="0 0 150 150">
  <defs>
    <style>
      .cls-1 {
        fill: #fff;
        stroke-width: 0px;
      }
    </style>
  </defs>
  <path class="cls-1" d="M100.67,64.77c0-2.17-1.77-3.94-3.94-3.94h-58.55c-2.17,0-3.94,1.77-3.94,3.94s1.77,3.94,3.94,3.94h58.55c2.17,0,3.94-1.77,3.94-3.94Z"/>
  <path class="cls-1" d="M38.18,83.57c-2.17,0-3.94,1.77-3.94,3.94s1.77,3.94,3.94,3.94h35.56c2.17,0,3.94-1.77,3.94-3.94s-1.77-3.94-3.94-3.94h-35.56Z"/>
  <path class="cls-1" d="M51.54,138.13h-19.01c-7.23,0-13.11-5.88-13.11-13.11V24.98c0-7.23,5.88-13.11,13.11-13.11h69.88c7.23,0,13.11,5.88,13.11,13.11v34.96c0,2.17,1.77,3.94,3.94,3.94s3.94-1.77,3.94-3.94V24.98c0-11.57-9.42-20.99-20.99-20.99H32.53c-11.57,0-20.99,9.42-20.99,20.99v100.04c0,11.57,9.42,20.99,20.99,20.99h19.01c2.17,0,3.94-1.77,3.94-3.94s-1.77-3.94-3.94-3.94Z"/>
  <path class="cls-1" d="M133.98,85.77c-2.89-2.89-6.73-4.48-10.83-4.48s-7.93,1.59-10.82,4.47l-31.21,31.14c-.46.46-.8,1.03-.99,1.64l-6.8,22.37c-.42,1.37-.05,2.87.95,3.9.74.76,1.76,1.19,2.82,1.19.36,0,.71-.05,1.05-.14l22.94-6.35c.65-.18,1.25-.53,1.73-1.01l31.14-31.08c5.97-5.97,5.97-15.68,0-21.65ZM98.01,132.2l-15.04,4.17,4.43-14.57,22.6-22.55,10.51,10.51-22.49,22.45ZM128.42,101.85l-2.34,2.33-10.51-10.51,2.33-2.33c1.4-1.4,3.27-2.17,5.25-2.17s3.85.77,5.25,2.17c2.9,2.9,2.9,7.61,0,10.5Z"/>
  <path class="cls-1" d="M96.73,38.09h-58.55c-2.17,0-3.94,1.77-3.94,3.94s1.77,3.94,3.94,3.94h58.55c2.17,0,3.94-1.77,3.94-3.94s-1.77-3.94-3.94-3.94Z"/>
</svg>